<svg fill="#000000" height="800px" width="800px" version="1.1" id="Capa_1" xmlns="http://www.w3.org/2000/svg" xmlns:xlink="http://www.w3.org/1999/xlink" 
	 viewBox="0 0 482 482" xml:space="preserve">
<g>
	<g>
		<g id="XMLID_545_">
			<g id="XMLID_658_">
				<path id="XMLID_796_" d="M447.85,117.1l-49,38.6c13.7,25.4,21.6,54.4,21.6,85.2c0,10.3-0.9,20.5-2.6,30.3l58.7,20.9
					c3.6-16.7,5.4-33.8,5.4-51.3C482.05,196.7,470.15,154.2,447.85,117.1z"/>
			</g>
			<g id="XMLID_642_">
				<path id="XMLID_657_" d="M241.05,420.4c-98.9,0-179.4-80.5-179.4-179.4c0-29.6,7.2-57.5,19.9-82.1l-49.8-37.7
					c-20.7,36.1-31.7,77.1-31.7,119.8c0,64.4,25.1,124.9,70.6,170.4s106,70.6,170.4,70.6s124.9-25.1,170.4-70.6
					c18.2-18.2,33.1-38.8,44.5-61.1l-58.8-21C366.25,383.7,307.85,420.4,241.05,420.4z"/>
			</g>
			<g id="XMLID_597_">
				<path id="XMLID_628_" d="M241.05,61.6c45.9,0,87.9,17.4,119.6,45.8l49-38.6C364.35,24.4,304.55,0,241.05,0
					c-64.4,0-124.9,25.1-170.4,70.6c-0.5,0.5-1.1,1.1-1.6,1.6l49.7,37.6C150.85,79.9,193.85,61.6,241.05,61.6z"/>
			</g>
		</g>
		<path id="XMLID_805_" d="M241.05,117.1c-68.4,0-123.9,55.5-123.9,123.9s55.5,123.9,123.9,123.9s123.9-55.5,123.9-123.9
			S309.45,117.1,241.05,117.1z M241.05,200.6c-22.3,0-40.4,18.1-40.4,40.4c0,10.2-8.3,18.5-18.5,18.5s-18.5-8.3-18.5-18.5
			c0-42.6,34.7-77.3,77.3-77.3c10.2,0,18.5,8.3,18.5,18.5S251.25,200.6,241.05,200.6z"/>
	</g>
</g>
</svg>